<?xml version="1.0" encoding="UTF-8"?>
<svg width="54px" height="54px" viewBox="0 0 54 54" version="1.1" xmlns="http://www.w3.org/2000/svg" xmlns:xlink="http://www.w3.org/1999/xlink">
    <title>item cross</title>
    <defs>
        <linearGradient x1="50%" y1="0%" x2="50%" y2="99.3533573%" id="linearGradient-1">
            <stop stop-color="#00F1FF" offset="0%"></stop>
            <stop stop-color="#006389" offset="100%"></stop>
        </linearGradient>
        <path d="M32.5,1 C33.6045695,1 34.5,1.8954305 34.5,3 L34.5,21.5 L53,21.5 C54.0543618,21.5 54.9181651,22.3158778 54.9945143,23.3507377 L55,23.5 L55,32.5 C55,33.6045695 54.1045695,34.5 53,34.5 L53,34.5 L34.5,34.5 L34.5,53 C34.5,54.1045695 33.6045695,55 32.5,55 L23.5,55 C22.3954305,55 21.5,54.1045695 21.5,53 L21.5,34.5 L3,34.5 C1.9456382,34.5 1.08183488,33.6841222 1.00548574,32.6492623 L1,32.5 L1,23.5 C1,22.3954305 1.8954305,21.5 3,21.5 L3,21.5 L21.5,21.5 L21.5,3 C21.5,1.8954305 22.3954305,1 23.5,1 L32.5,1 Z" id="path-2"></path>
    </defs>
    <g id="Page-1" stroke="none" stroke-width="1" fill="none" fill-rule="evenodd">
        <g id="Artboard" transform="translate(-18.000000, -294.000000)">
            <g id="item-cross" transform="translate(17.000000, 293.000000)">
                <mask id="mask-3" fill="white">
                    <use xlink:href="#path-2"></use>
                </mask>
                <use id="Combined-Shape" fill="url(#linearGradient-1)" fill-rule="evenodd" xlink:href="#path-2"></use>
                <g id="lines" opacity="0.300000012" style="mix-blend-mode: overlay;" mask="url(#mask-3)" fill="#111111" fill-rule="evenodd">
                    <circle id="Oval" cx="14" cy="21" r="8"></circle>
                    <circle id="Oval" cx="21" cy="2" r="4"></circle>
                    <circle id="Oval" cx="20" cy="45" r="4"></circle>
                    <circle id="Oval" cx="46" cy="18" r="4"></circle>
                    <circle id="Oval" cx="40" cy="30" r="2"></circle>
                </g>
            </g>
        </g>
    </g>
</svg>