<?xml version="1.0" encoding="UTF-8"?>
<svg width="49px" height="48px" viewBox="0 0 49 48" version="1.1" xmlns="http://www.w3.org/2000/svg" xmlns:xlink="http://www.w3.org/1999/xlink">
    <title>item ex</title>
    <defs>
        <linearGradient x1="50%" y1="0%" x2="50%" y2="100%" id="linearGradient-1">
            <stop stop-color="#F384E5" offset="0%"></stop>
            <stop stop-color="#932B9C" offset="100%"></stop>
        </linearGradient>
        <path d="M13.7114178,5.01902961 L27.4992432,18.8072432 L41.2885822,5.01902961 C42.028523,4.27908885 43.2040072,4.2401446 43.9897946,4.90219686 L44.1170094,5.01902961 L50.4809704,11.3829906 C51.262019,12.1640392 51.262019,13.4303692 50.4809704,14.2114178 L50.4809704,14.2114178 L36.6922432,27.9992432 L50.4809704,41.7885822 C51.262019,42.5696308 51.262019,43.8359608 50.4809704,44.6170094 L44.1170094,50.9809704 C43.3359608,51.762019 42.0696308,51.762019 41.2885822,50.9809704 L27.4992432,37.1922432 L13.7114178,50.9809704 C12.971477,51.7209112 11.7959928,51.7598554 11.0102054,51.0978031 L10.8829906,50.9809704 L4.51902961,44.6170094 C3.73798103,43.8359608 3.73798103,42.5696308 4.51902961,41.7885822 L4.51902961,41.7885822 L18.3072432,27.9992432 L4.51902961,14.2114178 C3.73798103,13.4303692 3.73798103,12.1640392 4.51902961,11.3829906 L10.8829906,5.01902961 C11.6640392,4.23798103 12.9303692,4.23798103 13.7114178,5.01902961 Z" id="path-2"></path>
    </defs>
    <g id="Page-1" stroke="none" stroke-width="1" fill="none" fill-rule="evenodd">
        <g id="Artboard" transform="translate(-20.000000, -205.000000)">
            <g id="item-ex" transform="translate(17.000000, 201.000000)">
                <mask id="mask-3" fill="white">
                    <use xlink:href="#path-2"></use>
                </mask>
                <use id="Combined-Shape" fill="url(#linearGradient-1)" fill-rule="evenodd" xlink:href="#path-2"></use>
                <g id="lines" opacity="0.300000012" style="mix-blend-mode: overlay;" mask="url(#mask-3)" fill="#111111" fill-rule="evenodd">
                    <circle id="Oval" cx="14" cy="21" r="8"></circle>
                    <circle id="Oval" cx="21" cy="2" r="4"></circle>
                    <circle id="Oval" cx="20" cy="45" r="4"></circle>
                    <circle id="Oval" cx="46" cy="18" r="4"></circle>
                    <circle id="Oval" cx="40" cy="30" r="2"></circle>
                </g>
            </g>
        </g>
    </g>
</svg>